<svg width="34" height="45" viewBox="0 0 34 45" fill="none" xmlns="http://www.w3.org/2000/svg">
<path fill-rule="evenodd" clip-rule="evenodd" d="M17 0C26.3888 0 34 7.61116 34 17C34 18.146 33.8866 19.2656 33.6704 20.348C32.17 31.655 17.0893 44.5238 17.0893 44.5238C17.0893 44.5238 4.25558 33.5723 1.08845 22.9983C0.384934 21.133 0 19.1114 0 17C0 7.61116 7.61116 0 17 0Z" fill="#78D8A4"/>
<path d="M23.4758 17C23.4758 13.4233 20.5763 10.5238 16.9996 10.5238C13.4229 10.5238 10.5234 13.4233 10.5234 17C10.5234 20.5767 13.4229 23.4762 16.9996 23.4762C20.5763 23.4762 23.4758 20.5767 23.4758 17Z" fill="white"/>
</svg>
