<svg width="552" height="464" viewBox="0 0 552 464" fill="none" xmlns="http://www.w3.org/2000/svg">
<path d="M438.909 302.483C490.322 302.483 532 344.64 532 396.644V443.724H485.455M369.091 205.355C409.242 194.903 438.909 158.036 438.909 114.161C438.909 70.2858 409.242 33.4195 369.091 22.9666M299.273 114.161C299.273 166.165 257.595 208.322 206.182 208.322C154.769 208.322 113.091 166.165 113.091 114.161C113.091 62.1573 154.769 20 206.182 20C257.595 20 299.273 62.1573 299.273 114.161ZM113.091 302.483H299.273C350.685 302.483 392.364 344.64 392.364 396.644V443.724H20V396.644C20 344.64 61.6782 302.483 113.091 302.483Z" stroke="#78D8A4" stroke-width="40" stroke-linecap="round" stroke-linejoin="round"/>
</svg>
